<svg width="16" height="16" viewBox="0 0 16 16" fill="none" xmlns="http://www.w3.org/2000/svg">
<path d="M12.627 8.30957C12.8551 8.30958 13.0163 8.32385 13.2266 8.3623C13.7318 8.45514 14.2324 8.67185 14.6416 8.97559C15.3705 9.51621 15.8508 10.3384 15.9727 11.252C15.9948 11.4162 16 11.4919 16 11.6826C16 11.8731 15.9948 11.9491 15.9727 12.1133C15.8734 12.8584 15.535 13.5476 15.0098 14.0723C14.4898 14.5915 13.799 14.9297 13.0576 15.0283C12.8934 15.0504 12.8175 15.0557 12.627 15.0557C12.3989 15.0557 12.2375 15.0414 12.0273 15.0029C11.5221 14.9101 11.0206 14.6934 10.6113 14.3896C9.88207 13.8491 9.4027 13.0276 9.28027 12.1133C9.26924 12.0308 9.26495 11.9854 9.25391 11.833C9.24917 11.7713 9.25578 11.4739 9.26367 11.3926C9.33961 10.5895 9.68426 9.85149 10.2432 9.29297C10.7631 8.77362 11.454 8.43568 12.1953 8.33691C12.3598 8.31477 12.4362 8.30958 12.627 8.30957ZM12.8652 11.9219C11.8411 12.946 11.002 13.7865 11.002 13.7881C11.0054 13.7945 11.0667 13.8392 11.1348 13.8848C11.3862 14.0544 11.6902 14.1898 11.9854 14.2637C12.2105 14.3201 12.3982 14.3428 12.627 14.3428C13.0418 14.3427 13.4334 14.2492 13.8135 14.0605C14.0891 13.9235 14.2955 13.7752 14.5068 13.5635C14.6454 13.4249 14.7378 13.3128 14.8379 13.1611C15.0624 12.8222 15.2149 12.4153 15.2656 12.0205C15.3009 11.7486 15.2941 11.4808 15.2451 11.2109C15.1845 10.8804 15.0512 10.5396 14.8672 10.248C14.8273 10.1848 14.74 10.0629 14.7324 10.0586C14.7101 10.0788 13.8775 10.9096 12.8652 11.9219ZM10.9268 1C12.5836 1 13.9268 2.34315 13.9268 4V8.03711C13.5189 7.89088 13.0792 7.81055 12.6211 7.81055C12.5262 7.81056 12.4321 7.81456 12.3389 7.82129V4.62793C12.3387 3.52366 11.4431 2.62817 10.3389 2.62793H4.7373C3.63293 2.62802 2.73749 3.52358 2.7373 4.62793V9.98047C2.7373 11.085 3.63281 11.9804 4.7373 11.9805H8.76758C8.81264 12.5623 8.98563 13.1077 9.25977 13.5889H4C2.34315 13.5889 1 12.2457 1 10.5889V4C1 2.34315 2.34315 1 4 1H10.9268ZM12.627 9.02246C12.212 9.0225 11.8197 9.11591 11.4395 9.30469C11.164 9.44171 10.9574 9.58993 10.7461 9.80176C10.5258 10.0226 10.3744 10.2354 10.2363 10.5195C10.0895 10.8219 10.0053 11.1264 9.97363 11.4688C9.96785 11.532 9.96266 11.74 9.96582 11.791C9.97848 11.9942 10.0017 12.1458 10.0459 12.3232C10.1134 12.5942 10.2338 12.8752 10.3867 13.1172C10.427 13.181 10.5153 13.3054 10.5215 13.3076C10.5316 13.2996 11.3694 12.4626 12.3896 11.4424L14.2539 9.57812L14.2402 9.56738C14.2094 9.54297 14.0911 9.46128 14.04 9.42969C13.8059 9.28414 13.5334 9.16801 13.2676 9.10156C13.0425 9.04519 12.8557 9.02248 12.627 9.02246Z" fill="black"/>
</svg>

